<svg width="36" height="36" viewBox="0 0 36 36" fill="none" xmlns="http://www.w3.org/2000/svg">
<path d="M12 19.8H10.8V21H12V19.8Z" fill="black" fill-opacity="0.8"/>
<path d="M12 22.2H10.8V23.4H12V22.2Z" fill="black" fill-opacity="0.8"/>
<path d="M12 24.6H10.8V25.8H12V24.6Z" fill="black" fill-opacity="0.8"/>
<path d="M12 17.4H10.8V18.6H12V17.4Z" fill="black" fill-opacity="0.8"/>
<path d="M12 15H10.8V16.2H12V15Z" fill="black" fill-opacity="0.8"/>
<path d="M12 12.6H10.8V13.8H12V12.6Z" fill="black" fill-opacity="0.8"/>
<path d="M12 10.2H10.8V11.4H12V10.2Z" fill="black" fill-opacity="0.8"/>
<path d="M3.5999 10.2H2.3999V11.4H3.5999V10.2Z" fill="black" fill-opacity="0.8"/>
<path d="M33.5999 10.2H32.3999V11.4H33.5999V10.2Z" fill="black" fill-opacity="0.8"/>
<path d="M33.5999 24.6H32.3999V25.8H33.5999V24.6Z" fill="black" fill-opacity="0.8"/>
<path d="M3.5999 24.6H2.3999V25.8H3.5999V24.6Z" fill="black" fill-opacity="0.8"/>
<path d="M35.4 15C35.7313 15 36 14.7314 36 14.4V8.40005C36 8.0687 35.7313 7.80005 35.4 7.80005H0.6C0.26865 7.80005 0 8.0687 0 8.40005V14.4C0 14.7314 0.26865 15 0.6 15C2.25682 15 3.6 16.3432 3.6 18C3.6 19.6569 2.25682 21 0.6 21C0.26865 21 0 21.2687 0 21.6V27.6C0 27.9314 0.26865 28.2 0.6 28.2H35.4C35.7313 28.2 36 27.9314 36 27.6V21.6C36 21.2687 35.7313 21 35.4 21C33.7432 21 32.4 19.6569 32.4 18C32.4 16.3432 33.7432 15 35.4 15ZM31.2393 18.5967C31.5042 20.4425 32.9543 21.8925 34.8 22.1574V27H1.2V22.1574C3.49605 21.8279 5.09025 19.6995 4.7607 17.4033C4.4958 15.5577 3.04575 14.1075 1.2 13.8426V9.00005H34.8V13.8426C32.504 14.1722 30.9097 16.3006 31.2393 18.5967Z" fill="black" fill-opacity="0.8"/>
<path d="M18.0001 12C16.6746 12 15.6001 13.0745 15.6001 14.4C15.6001 15.7255 16.6746 16.8 18.0001 16.8C19.3256 16.8 20.4001 15.7255 20.4001 14.4C20.4001 13.0745 19.3256 12 18.0001 12ZM18.0001 15.6C17.3373 15.6 16.8001 15.0628 16.8001 14.4C16.8001 13.7372 17.3373 13.2 18.0001 13.2C18.6629 13.2 19.2001 13.7372 19.2001 14.4C19.2001 15.0628 18.6629 15.6 18.0001 15.6Z" fill="black" fill-opacity="0.8"/>
<path d="M25.2 19.2C23.8746 19.2 22.8 20.2745 22.8 21.6C22.8 22.9254 23.8746 24 25.2 24C26.5255 24 27.6 22.9254 27.6 21.6C27.6 20.2745 26.5255 19.2 25.2 19.2ZM25.2 22.8C24.5373 22.8 24 22.2627 24 21.6C24 20.9372 24.5373 20.4 25.2 20.4C25.8628 20.4 26.4 20.9372 26.4 21.6C26.4 22.2627 25.8628 22.8 25.2 22.8Z" fill="black" fill-opacity="0.8"/>
<path d="M25.9755 12.7745L16.3757 22.3743L17.2243 23.2228L26.824 13.623L25.9755 12.7745Z" fill="black" fill-opacity="0.8"/>
</svg>
