<svg width="40" height="41" viewBox="0 0 40 41" fill="none" xmlns="http://www.w3.org/2000/svg">
<path d="M20.7912 6.55457H0V19.5656H20.7912V6.55457Z" fill="black"/>
<path d="M0 29.8512H3.08879C3.69424 27.0897 6.15824 25.0161 9.0989 25.0161C12.0396 25.0161 14.5035 27.0897 15.109 29.8512H20.7912V22.2029H0V29.8512Z" fill="black"/>
<path d="M9.09888 27.6534C7.15989 27.6534 5.5824 29.2309 5.5824 31.1699C5.5824 33.1089 7.15989 34.6864 9.09888 34.6864C11.0379 34.6864 12.6154 33.1089 12.6154 31.1699C12.6154 29.2309 11.0379 27.6534 9.09888 27.6534Z" fill="black"/>
<path d="M30.9011 27.6534C28.9621 27.6534 27.3846 29.2309 27.3846 31.1699C27.3846 33.1089 28.9621 34.6864 30.9011 34.6864C32.8401 34.6864 34.4176 33.1089 34.4176 31.1699C34.4176 29.2309 32.8401 27.6534 30.9011 27.6534Z" fill="black"/>
<path d="M31.2088 6.55457H23.4286V29.8513H24.891C25.4965 27.0898 27.9605 25.0161 30.9011 25.0161C33.8418 25.0161 36.3057 27.0898 36.9112 29.8513H40V17.6315L31.2088 6.55457Z" fill="black"/>
</svg>
