<svg width="40" height="41" viewBox="0 0 40 41" fill="none" xmlns="http://www.w3.org/2000/svg">
<g clip-path="url(#clip0_621_18051)">
<path d="M20 0.620483L17.6677 1.7911L18.8077 4.07241L20 3.4718L34.027 10.4853V19.8987C34.0167 24.3113 31.9401 28.4645 28.4162 31.1204L20 37.4325L11.5838 31.1204C8.0599 28.4645 5.98334 24.3113 5.97298 19.8987V10.4853L7.40246 9.77121L6.26244 7.4899L3.42261 8.90919V19.8987C3.43496 25.1137 5.88905 30.0218 10.0536 33.1607L20 40.6205L29.9465 33.1607C34.111 30.0218 36.5651 25.1137 36.5774 19.8987V8.90919L20 0.620483Z" fill="black"/>
<path d="M16.5262 5.20463L15.3857 2.92358L13.1046 4.06411L14.2452 6.34516L16.5262 5.20463Z" fill="black"/>
<path d="M11.9646 7.48869L10.8241 5.20764L8.54302 6.34817L9.68354 8.62922L11.9646 7.48869Z" fill="black"/>
<path d="M10.4361 25.0556L20 30.9418L29.5639 25.0556V14.089L20 8.2002L10.4361 14.0852V25.0556ZM27.0135 23.6312L21.2752 27.1673V20.6116L27.0135 17.0793V23.6312ZM20 11.1943L25.8557 14.798L20 18.4017L14.1444 14.798L20 11.1943ZM12.9865 17.0793L18.7248 20.6116V27.1673L12.9865 23.6363V17.0793Z" fill="black"/>
</g>
<defs>
<clipPath id="clip0_621_18051">
<rect width="39.1548" height="40" fill="white" transform="translate(0.422607 0.620483)"/>
</clipPath>
</defs>
</svg>
