<svg width="40" height="41" viewBox="0 0 40 41" fill="none" xmlns="http://www.w3.org/2000/svg">
<path d="M34.6753 7.76536C31.2416 4.33171 26.6763 2.44067 21.8202 2.44067C21.3489 2.44067 20.9669 2.82275 20.9669 3.29407V7.88865C20.9669 8.35997 21.3489 8.74205 21.8202 8.74205C28.37 8.74205 33.6985 14.0706 33.6985 20.6202C33.6985 27.17 28.37 32.4985 21.8202 32.4985C15.8128 32.4985 10.8034 28.0295 10.0424 22.1693H13.0422C13.0429 22.1693 13.0433 22.1694 13.0439 22.1693C13.5152 22.1693 13.8973 21.7873 13.8973 21.3159C13.8973 21.0813 13.8026 20.8688 13.6493 20.7145L7.52559 13.8548C7.36361 13.6734 7.13205 13.5697 6.88896 13.5697C6.88758 13.5697 6.88619 13.5697 6.88489 13.5697C6.64034 13.5709 6.40805 13.6769 6.24688 13.8609L0.21136 20.7539C-0.00922215 21.006 -0.0621325 21.3637 0.0761984 21.6686C0.214529 21.9736 0.5185 22.1695 0.853436 22.1695H3.70702C4.07707 26.56 6.01199 30.633 9.20856 33.7133C12.6126 36.9935 17.0915 38.8001 21.8202 38.8001C26.6762 38.8001 31.2415 36.9091 34.6752 33.4753C38.1089 30.0416 40 25.4763 40 20.6203C40 15.7643 38.109 11.199 34.6753 7.76536ZM21.8202 37.0933C12.9415 37.0933 5.71217 30.1483 5.36187 21.2824C5.34375 20.8246 4.96736 20.4627 4.50913 20.4627H2.73497L6.89513 15.7116L11.1365 20.4627H9.10778C8.87346 20.4627 8.64947 20.5591 8.48838 20.7291C8.32721 20.8992 8.24309 21.128 8.25569 21.3619C8.6437 28.5639 14.602 34.2053 21.8203 34.2053C29.3112 34.2053 35.4054 28.1111 35.4054 20.6203C35.4054 13.4161 29.7685 7.50373 22.6737 7.06184V4.16932C31.3621 4.61463 38.2933 11.8233 38.2933 20.6203C38.2933 29.7036 30.9035 37.0933 21.8202 37.0933Z" fill="black"/>
<path d="M20.7586 21.398V27.8517H18.6998C18.2284 27.8517 17.8464 28.2337 17.8464 28.7051C17.8464 29.1764 18.2284 29.5585 18.6998 29.5585H20.7586V30.6173C20.7586 31.0886 21.1407 31.4707 21.612 31.4707C22.0833 31.4707 22.4654 31.0886 22.4654 30.6173V29.4824C24.7592 29.0773 26.5075 27.071 26.5075 24.6627C26.5075 22.2546 24.7591 20.2483 22.4654 19.8432V13.3893L24.2631 13.3893C24.7345 13.3893 25.1165 13.0072 25.1165 12.5359C25.1165 12.0645 24.7345 11.6825 24.2631 11.6825L22.4654 11.6826V10.6235C22.4654 10.1522 22.0833 9.77014 21.612 9.77014C21.1407 9.77014 20.7586 10.1522 20.7586 10.6235V11.7585C18.4647 12.1637 16.7163 14.17 16.7163 16.5782C16.7163 18.9865 18.4647 20.9928 20.7586 21.398ZM24.8007 24.6628C24.8007 26.1256 23.8104 27.3606 22.4654 27.7348V21.5909C23.8104 21.965 24.8007 23.2001 24.8007 24.6628ZM20.7586 13.5063V19.6503C19.4134 19.2761 18.4231 18.0411 18.4231 16.5782C18.4231 15.1155 19.4134 13.8805 20.7586 13.5063Z" fill="black"/>
</svg>
