<svg width="24" height="24" viewBox="0 0 24 24" fill="none" xmlns="http://www.w3.org/2000/svg">
<path d="M5.31006 5H2.31006M5.55006 5L7.71006 12.84C7.89035 13.4582 8.2648 14.0021 8.77805 14.3911C9.29129 14.78 9.91609 14.9936 10.5601 15H19.3001V5H5.55006ZM12.3101 18.5C12.3101 19.3284 11.6385 20 10.8101 20C9.98163 20 9.31006 19.3284 9.31006 18.5C9.31006 17.6716 9.98163 17 10.8101 17C11.6385 17 12.3101 17.6716 12.3101 18.5ZM19.3101 18.5C19.3101 19.3284 18.6385 20 17.8101 20C16.9816 20 16.3101 19.3284 16.3101 18.5C16.3101 17.6716 16.9816 17 17.8101 17C18.6385 17 19.3101 17.6716 19.3101 18.5Z" stroke="white" stroke-linecap="round" stroke-linejoin="round"/>
<path d="M13.1 8.5C15.4472 8.5 17.35 6.59721 17.35 4.25C17.35 1.90279 15.4472 0 13.1 0C10.7528 0 8.84998 1.90279 8.84998 4.25C8.84998 6.59721 10.7528 8.5 13.1 8.5Z" fill="#FF453A"/>
</svg>
