<svg width="37" height="34" viewBox="0 0 37 34" fill="none" xmlns="http://www.w3.org/2000/svg">
<path d="M34.7522 3.87862C34.678 3.77997 34.6019 3.68378 34.5236 3.59006C34.4998 3.56158 34.4747 3.53486 34.4504 3.50674C34.3952 3.44261 34.3402 3.37807 34.2831 3.31626C34.2517 3.2823 34.2186 3.25045 34.1866 3.21726C34.135 3.16361 34.084 3.10912 34.0309 3.05744C33.9981 3.02559 33.9638 2.99585 33.9306 2.96463C33.8764 2.91394 33.8228 2.86233 33.7672 2.81353C33.7336 2.78414 33.6986 2.75672 33.6644 2.72803C33.6073 2.67994 33.5509 2.63107 33.4923 2.58495C33.4545 2.5552 33.4152 2.52778 33.3769 2.49881C33.3204 2.4562 33.2644 2.41261 33.2066 2.37176C33.1649 2.34244 33.1218 2.31544 33.0795 2.28696C33.0232 2.24906 32.9676 2.21018 32.91 2.17404C32.8674 2.14711 32.8231 2.12271 32.7798 2.09677C32.7211 2.06168 32.6631 2.0254 32.6032 1.99207C32.5582 1.9669 32.5117 1.94419 32.466 1.92007C32.4063 1.88843 32.3471 1.85574 32.2863 1.82585C32.2387 1.80244 32.1896 1.78149 32.1413 1.7592C32.0809 1.73121 32.021 1.70211 31.9596 1.67567C31.9072 1.65324 31.8533 1.63334 31.8002 1.61211C31.7413 1.58855 31.6832 1.56373 31.6234 1.54165C31.5675 1.52098 31.5101 1.50298 31.4535 1.48365C31.395 1.46361 31.3371 1.44237 31.2778 1.42374C31.2193 1.40539 31.1594 1.38978 31.1001 1.3729C31.0412 1.35603 30.983 1.33789 30.9234 1.32235C30.8599 1.3059 30.7949 1.29219 30.7306 1.27728C30.6738 1.26406 30.6177 1.24951 30.5602 1.23755C30.4924 1.22342 30.423 1.21217 30.3543 1.19972C30.299 1.18974 30.2444 1.17828 30.1885 1.16942C30.1165 1.15796 30.0431 1.14945 29.9702 1.13989C29.917 1.13286 29.8645 1.12428 29.8108 1.1183C29.6784 1.0918 29.4953 1.06782 29.3958 1.06233C29.12 1.04497 28.8445 1.03013 28.5694 1.01684C28.4772 1.01234 28.3846 1.00862 28.2921 1.00454C28.1091 0.996522 27.9262 0.98935 27.7436 0.983022C27.6263 0.978944 27.5091 0.975007 27.3913 0.971632C27.245 0.967413 27.0989 0.964249 26.953 0.961225C26.5224 0.951804 26.0902 0.945194 25.6557 0.944702C25.6555 0.944702 25.6552 0.944702 25.655 0.944702C25.6431 0.944702 25.6316 0.94639 25.6198 0.947093C19.4402 0.946882 13.6695 1.83303 9.64204 2.65772C4.39921 3.73118 0.884584 4.93661 0.84978 4.9487C0.610718 5.03132 0.450195 5.25646 0.450195 5.50944V10.5863C0.450195 10.9138 0.715694 11.1795 1.04342 11.1795C1.37114 11.1795 1.63664 10.9138 1.63664 10.5863V5.93884C3.75241 5.26047 13.9551 2.18888 25.2988 2.13361C25.7743 3.21227 26.2143 5.87647 26.2143 9.35777C26.2143 11.4415 26.0569 13.4351 25.771 14.9715C25.7111 15.2936 25.9236 15.6033 26.2457 15.6633C26.5673 15.7232 26.8775 15.5108 26.9374 15.1886C27.2362 13.5829 27.4007 11.5121 27.4007 9.35791C27.4007 6.33983 27.085 3.68393 26.5683 2.14057C26.6504 2.14184 26.7324 2.14303 26.8146 2.14458C26.8888 2.14606 26.9629 2.14767 27.0369 2.14943C27.1628 2.15238 27.2888 2.15562 27.4149 2.15935C27.5219 2.16258 27.6287 2.16624 27.7353 2.16996C27.8377 2.17355 27.9399 2.17699 28.0423 2.18114C28.1775 2.18663 28.3119 2.19295 28.4462 2.19928C28.5247 2.20301 28.6031 2.20624 28.6817 2.21025C28.8961 2.22129 29.1096 2.23331 29.3214 2.24674C29.3309 2.24731 29.3406 2.24766 29.3503 2.24787C29.394 2.25096 29.5216 2.27135 29.6004 2.28591C29.6105 2.28823 29.6205 2.28963 29.6304 2.29146C29.6388 2.29294 29.6474 2.29491 29.6558 2.2961C29.6741 2.2987 29.6923 2.30046 29.7101 2.30138C31.3042 2.48665 32.6473 3.19371 33.6153 4.35386C33.6798 4.4312 33.7427 4.51059 33.8039 4.59187C34.7587 5.86192 35.2634 7.53914 35.2634 9.44243C35.2634 12.7819 34.1274 14.9846 31.8867 15.9894C31.7931 16.0314 31.6403 16.0919 31.4471 16.1597C31.0223 16.309 30.4023 16.4938 29.7876 16.5953C29.7098 16.6043 29.5888 16.614 29.4631 16.6228C29.4501 16.6236 29.4371 16.6246 29.4242 16.6255C29.4225 16.6256 29.4207 16.6257 29.419 16.6259C29.2461 16.6377 29.0841 16.6468 29.0377 16.6493C29.0346 16.6494 29.0314 16.6496 29.0284 16.6498C29.0259 16.6499 29.0243 16.65 29.0242 16.65C29.0222 16.6501 29.0204 16.6502 29.0185 16.6503C28.7567 16.6668 28.4928 16.6809 28.2279 16.6938C28.1455 16.6977 28.0634 16.701 27.9812 16.7046C27.9575 16.7057 27.9335 16.7065 27.9097 16.7075C27.7514 16.7143 27.593 16.7207 27.4339 16.7261C27.332 16.7296 27.2303 16.7329 27.1287 16.7357C27.1004 16.7365 27.0721 16.7371 27.0438 16.7378C26.9118 16.7415 26.7794 16.7446 26.6468 16.7473C26.5319 16.7497 26.4169 16.7524 26.3022 16.7541C26.265 16.7546 26.2275 16.7548 26.1902 16.7553C26.1199 16.7562 26.049 16.7565 25.9785 16.7571C25.6257 16.7603 25.2738 16.761 24.9238 16.7581C24.9087 16.7579 24.8936 16.7579 24.8786 16.7578C18.9993 16.704 13.5677 15.8175 9.75686 14.9944C4.66105 13.8939 1.28107 12.666 1.24754 12.6537C0.939709 12.5412 0.599257 12.6993 0.486617 13.0069C0.373977 13.3146 0.531968 13.6552 0.839655 13.7679C0.873826 13.7804 4.31441 15.0315 9.48454 16.1495C13.6069 17.0409 17.3066 17.5247 20.5021 17.759L17.5577 19.4937C17.5443 19.5015 17.5312 19.5099 17.5186 19.5188C17.0555 19.8429 16.8048 20.373 16.8481 20.9366C16.8913 21.5003 17.2199 21.9858 17.7272 22.2354L18.0624 22.4004C16.9907 23.0396 15.7847 23.8244 14.7628 24.8894C14.1019 25.5782 13.7242 26.8919 13.7525 28.4035C13.7703 29.3579 13.9467 30.2285 14.2461 30.9095C13.1747 31.1785 10.4026 31.4724 4.80421 29.8236C4.4897 29.7309 4.16008 29.9108 4.06755 30.225C3.97502 30.5393 4.15474 30.8691 4.46896 30.9618C8.02992 32.0106 10.5273 32.3169 12.2298 32.3169C13.6117 32.3169 14.4693 32.1151 14.9478 31.9446L15.1366 32.1306C15.7622 32.7467 16.571 33.0555 17.3803 33.0555C18.1725 33.0555 18.9651 32.7597 19.5871 32.1666L24.7631 27.2318C26.7252 25.361 29.3387 20.9435 30.0063 17.7614C30.0542 17.7533 30.1021 17.7452 30.1501 17.7362C31.0686 17.5653 31.9866 17.245 32.3724 17.072C35.04 15.8758 36.4501 13.2375 36.4501 9.44243C36.45 7.27969 35.8629 5.35588 34.7522 3.87862ZM29.8775 1.13321C29.8673 1.13068 29.8555 1.12815 29.8441 1.12562C29.8553 1.12772 29.8665 1.12941 29.8777 1.13222L29.8775 1.13321ZM18.0309 20.8455C18.0258 20.7798 18.0313 20.6178 18.1839 20.5013L21.1102 18.7773C20.9818 19.806 20.7127 20.5696 20.3295 20.9532C20.1199 21.1629 19.7442 21.4065 19.2866 21.6803L18.251 21.1706C18.0679 21.0806 18.0361 20.9132 18.0309 20.8455ZM23.9443 26.3727L18.7683 31.3075C17.9773 32.0617 16.7477 32.0519 15.9689 31.2848L15.7166 31.0362C15.2658 30.5923 14.9605 29.5501 14.9386 28.381C14.9168 27.2121 15.1838 26.1638 15.6189 25.7104C16.7413 24.5406 18.1698 23.7076 19.3177 23.0383C20.1285 22.5654 20.769 22.192 21.1689 21.7916C22.0311 20.9286 22.3078 19.3287 22.368 17.9361C22.3783 17.9169 22.3875 17.8973 22.3956 17.8773C23.4872 17.9277 24.5671 17.9511 25.6295 17.9472C25.6322 17.9473 25.6347 17.9476 25.6374 17.9476C25.6381 17.9476 25.6391 17.9476 25.6397 17.9476C25.8013 17.947 25.9624 17.9442 26.1236 17.9422C26.2311 17.9409 26.3391 17.9404 26.4462 17.9386C26.5837 17.9362 26.7202 17.9323 26.8572 17.9291C27.0014 17.9257 27.1457 17.9226 27.2891 17.9181C27.391 17.915 27.4922 17.911 27.5937 17.9073C27.6939 17.9037 27.7941 17.9002 27.892 17.8961C27.9657 17.893 28.0392 17.8898 28.1127 17.8865C28.1204 17.8862 28.1284 17.8859 28.1361 17.8854C28.184 17.8832 28.2322 17.8814 28.2798 17.8791C28.4351 17.8717 28.5865 17.8637 28.7357 17.8553C28.747 17.8547 28.7585 17.8542 28.7698 17.8535C28.0491 20.7571 25.6768 24.7209 23.9443 26.3727Z" fill="white"/>
</svg>
