<svg width="37" height="37" viewBox="0 0 37 37" fill="none" xmlns="http://www.w3.org/2000/svg">
<path d="M0.733165 22.9315C0.466406 23.3513 0.378859 23.8502 0.487348 24.3357L2.60769 33.8342C2.80132 34.7017 3.57516 35.2934 4.43071 35.2934C4.56426 35.2934 4.69988 35.279 4.83617 35.2487L5.94612 35.0022C6.24962 35.6393 6.8954 36.0529 7.60264 36.0526C7.73413 36.0526 7.86803 36.0385 8.00192 36.0086L9.93721 35.5792C10.4182 35.4726 10.8278 35.1851 11.0914 34.7698C11.3537 34.3565 11.4399 33.8655 11.3331 33.3876L8.57767 21.046C8.3576 20.0578 7.3733 19.4307 6.38351 19.6528L5.79438 19.7838C5.69447 18.5525 5.64091 17.2621 5.64091 16.5972C5.64091 9.68215 11.3936 4.05612 18.4649 4.05612C25.5366 4.05612 31.2893 9.68215 31.2893 16.5972C31.2893 17.2762 31.2361 18.5508 31.1348 19.7937L30.5007 19.6528C29.5112 19.432 28.5266 20.0581 28.3062 21.0456L25.551 33.388C25.4443 33.8655 25.5304 34.3565 25.7927 34.7698C26.0564 35.1851 26.466 35.4726 26.9466 35.5792L28.8819 36.0086C29.0161 36.0385 29.1497 36.0526 29.2815 36.0526C29.9884 36.0526 30.6342 35.639 30.9377 35.0022L32.0477 35.2487C32.184 35.279 32.3199 35.2934 32.4535 35.2934C33.309 35.2934 34.0829 34.7017 34.2761 33.8342L36.3965 24.3357C36.505 23.8502 36.4178 23.3513 36.151 22.9315C35.9313 22.5853 35.6082 22.3332 35.2309 22.1919C35.4527 20.1902 35.5567 17.7775 35.5567 16.7385C35.5567 7.50882 27.8894 0 18.4649 0C9.04046 0 1.37346 7.50882 1.37346 16.7385C1.37346 17.78 1.47714 20.1802 1.69755 22.1775C1.30136 22.3147 0.961472 22.5719 0.733165 22.9315ZM6.57852 20.5326C6.64718 20.5175 6.71585 20.5103 6.78348 20.5103C7.21366 20.5103 7.60264 20.807 7.6998 21.2423L10.4549 33.5843C10.5092 33.827 10.4652 34.0763 10.332 34.286C10.1974 34.4982 9.98802 34.645 9.74221 34.6993L7.80691 35.1291C7.30327 35.2412 6.79824 34.9231 6.68529 34.4194L6.67671 34.3799C6.67671 34.3795 6.67671 34.3792 6.67671 34.3785C6.67671 34.3782 6.67602 34.3778 6.67602 34.3771L3.94011 22.1208C3.94011 22.1204 3.94045 22.1201 3.94011 22.1197C3.94011 22.1194 3.93977 22.119 3.93977 22.1187L3.9305 22.0774C3.8766 21.8347 3.92054 21.5854 4.05375 21.3753C4.18799 21.1632 4.39775 21.0167 4.64323 20.9621L6.57852 20.5326ZM29.0773 35.1291L27.1416 34.6993C26.8962 34.645 26.6864 34.4982 26.5521 34.286C26.4189 34.0763 26.375 33.827 26.4289 33.5843L29.1844 21.2419C29.2815 20.807 29.6705 20.5103 30.1007 20.5103C30.1683 20.5103 30.237 20.5175 30.3053 20.5326L32.2413 20.9624C32.4864 21.0167 32.6958 21.1632 32.8304 21.3753C32.9636 21.5854 33.0076 21.8347 32.9533 22.0771L32.9441 22.1187C32.9441 22.119 32.9441 22.1194 32.9437 22.1197V22.1204L30.2078 34.3775C30.2078 34.3778 30.2075 34.3782 30.2075 34.3785V34.3799L30.1985 34.4191C30.0856 34.9231 29.5813 35.2398 29.0773 35.1291ZM35.3916 23.4149C35.5293 23.6319 35.5742 23.8887 35.5186 24.1387L33.3983 33.6376C33.2822 34.1571 32.7638 34.4837 32.243 34.3689L31.1842 34.1337L33.7241 22.7544L34.7843 22.9896C35.0373 23.046 35.2532 23.1969 35.3916 23.4149ZM18.4649 0.901513C27.3933 0.901513 34.6569 8.006 34.6569 16.7385C34.6569 17.7359 34.559 20.0282 34.35 21.9698L33.8721 21.8639C33.8707 21.5222 33.7773 21.1869 33.5898 20.8912C33.3262 20.4762 32.9163 20.1888 32.436 20.0826L32.0216 19.9904C32.1311 18.6846 32.1894 17.3175 32.1894 16.5972C32.1894 9.18498 26.0327 3.15461 18.4649 3.15461C10.8975 3.15461 4.74073 9.18498 4.74073 16.5972C4.74073 17.3203 4.79841 18.6794 4.90758 19.9804L4.44857 20.0822C3.96792 20.1888 3.558 20.4762 3.29433 20.8912C3.10687 21.1869 3.01349 21.5222 3.01212 21.8639L2.57885 21.9602C2.37904 20.0932 2.27329 17.7762 2.27329 16.7385C2.27329 8.006 9.5369 0.901513 18.4649 0.901513ZM1.49259 23.4149C1.63094 23.1969 1.84655 23.046 2.09992 22.9896L3.15975 22.7544L5.69962 34.1337L4.64117 34.3689C4.12207 34.4837 3.60194 34.1571 3.4859 33.6376L1.36556 24.1387C1.3096 23.8887 1.35492 23.6319 1.49259 23.4149Z" fill="white"/>
</svg>
