<svg width="25" height="36" viewBox="0 0 25 36" fill="none" xmlns="http://www.w3.org/2000/svg">
<path d="M17.6955 9H7.19543C5.95491 9 4.94543 10.0095 4.94543 11.25C4.94543 12.4905 5.95491 13.5 7.19543 13.5H17.6954C18.9359 13.5 19.9454 12.4905 19.9454 11.25C19.9454 10.0095 18.9359 9 17.6955 9ZM17.6955 12H7.19543C6.78143 12 6.44541 11.664 6.44541 11.25C6.44541 10.836 6.78143 10.5 7.19543 10.5H17.6954C18.1094 10.5 18.4454 10.836 18.4454 11.25C18.4454 11.664 18.1095 12 17.6955 12Z" fill="white"/>
<path d="M17.6955 15H7.19543C5.95491 15 4.94543 16.0095 4.94543 17.25C4.94543 18.4905 5.95491 19.5 7.19543 19.5H17.6954C18.9359 19.5 19.9454 18.4905 19.9454 17.25C19.9455 16.0095 18.9359 15 17.6955 15ZM17.6955 18H7.19543C6.78143 18 6.44541 17.664 6.44541 17.25C6.44541 16.836 6.78143 16.5 7.19543 16.5H17.6954C18.1094 16.5 18.4454 16.836 18.4454 17.25C18.4454 17.664 18.1095 18 17.6955 18Z" fill="white"/>
<path d="M17.6955 21H7.19543C5.95491 21 4.94543 22.0095 4.94543 23.25C4.94543 24.4905 5.95491 25.5 7.19543 25.5H17.6954C18.9359 25.5 19.9454 24.4905 19.9454 23.25C19.9455 22.0095 18.9359 21 17.6955 21ZM17.6955 24H7.19543C6.78143 24 6.44541 23.6639 6.44541 23.2499C6.44541 22.8359 6.78143 22.5 7.19543 22.5H17.6954C18.1094 22.5 18.4454 22.836 18.4454 23.25C18.4454 23.664 18.1095 24 17.6955 24Z" fill="white"/>
<path d="M21.7905 30.2925C25.3245 23.28 25.326 11.34 21.7935 4.21805C21.426 3.47857 20.637 3.00002 19.7835 3.00002H18.4455V2.25C18.4455 1.00948 17.4361 0 16.1955 0H8.69551C7.45498 0 6.4455 1.00948 6.4455 2.25V3.00002H5.10753C4.25401 3.00002 3.46503 3.4785 3.09751 4.21952C-0.433518 11.34 -0.431971 23.2815 3.10053 30.2925C3.47698 31.0365 4.245 31.5 5.10746 31.5H8.56044L8.06094 34.5H4.19544C3.78144 34.5 3.44541 34.836 3.44541 35.25C3.44541 35.664 3.78144 36.0001 4.19544 36.0001H20.6955C21.1095 36.0001 21.4455 35.664 21.4455 35.25C21.4455 34.836 21.1095 34.5 20.6955 34.5H16.8314L16.332 31.5H19.785C20.6475 31.5 21.4155 31.0365 21.7905 30.2925ZM7.94548 2.25C7.94548 1.836 8.2815 1.49998 8.69551 1.49998H16.1955C16.6095 1.49998 16.9456 1.836 16.9456 2.25V3.00002H7.94555L7.94548 2.25ZM9.58046 34.5L10.08 31.5H14.8095L15.3104 34.5H9.58046ZM5.10746 30C4.81946 30 4.55698 29.85 4.43998 29.6175C1.09051 22.9695 1.09051 11.643 4.44301 4.88552C4.55853 4.65152 4.81953 4.5 5.10753 4.5H19.782C20.0715 4.5 20.3325 4.65152 20.4495 4.88552C23.8005 11.643 23.8005 22.9695 20.4495 29.6175C20.334 29.85 20.0715 30 19.7835 30H5.10746Z" fill="white"/>
</svg>
