<svg width="37" height="36" viewBox="0 0 37 36" fill="none" xmlns="http://www.w3.org/2000/svg">
<g clip-path="url(#clip0_183_12662)">
<path d="M31.0533 8.00392C30.6723 8.00639 30.2946 8.07825 29.9395 8.21612L18.173 2.52229C17.7375 1.29723 16.7028 0.380284 15.4322 0.0934496C14.1616 -0.193385 12.8324 0.18937 11.9107 1.10817L11.1093 1.90514C10.9573 1.87368 10.8049 1.84684 10.6522 1.82495C8.48442 1.50788 6.29468 2.23546 4.74997 3.7856L2.95924 5.572C2.71199 5.81874 2.71199 6.21845 2.95924 6.46519L5.16196 8.66334C3.93033 9.90845 3.93775 11.912 5.17834 13.1481C6.41615 14.3874 8.42507 14.3951 9.67246 13.1651L11.912 15.4006C12.1589 15.647 12.5598 15.647 12.807 15.4006L14.5962 13.6123C16.2546 11.9481 16.963 9.5627 16.4806 7.26556L17.282 6.46519C17.32 6.42726 17.3528 6.38624 17.3889 6.34707L27.9138 11.4142C27.9219 11.557 27.9395 11.6992 27.9664 11.8398L18.6385 24.0377C17.4084 24.2283 16.4997 25.2831 16.4951 26.5251V28.4201H14.5962C14.2466 28.4201 13.9632 28.7029 13.9632 29.0517V30.9467H13.3303C11.932 30.9467 10.7984 32.078 10.7984 33.4733V35.3683C10.7984 35.7171 11.0818 35.9999 11.4314 35.9999H26.6226C26.9721 35.9999 27.2555 35.7171 27.2555 35.3683V33.4733C27.2555 32.078 26.1222 30.9467 24.7237 30.9467H24.0907V29.0517C24.0907 28.7029 23.8073 28.4201 23.4577 28.4201H21.5588V26.5251C21.5588 26.5051 21.5533 26.486 21.5527 26.4659L30.8197 14.2964C30.8982 14.3026 30.9736 14.3205 31.0533 14.3205C32.8014 14.3205 34.2182 12.9063 34.2182 11.1622C34.2182 9.41774 32.8014 8.00392 31.0533 8.00392ZM6.07401 12.2531C5.32947 11.5101 5.32082 10.3082 6.05485 9.5553L8.77679 12.2713C8.0134 12.9813 6.82751 12.9733 6.07401 12.2531ZM16.3869 5.572L15.3355 6.62126C15.1757 6.78071 15.1133 7.01296 15.1717 7.2307C15.5688 8.73458 15.3346 10.3347 14.5229 11.6625L11.2459 8.39223L10.3509 9.28543L13.7429 12.671C13.7283 12.6864 13.7163 12.704 13.7011 12.7191L12.3579 14.0589L10.1206 11.8259L9.05341 10.7609L4.30183 6.0186L5.64472 4.6788C6.90694 3.40809 8.69983 2.81283 10.4733 3.07561C10.6995 3.10799 10.9242 3.15364 11.1455 3.21224C11.3634 3.26961 11.5955 3.207 11.755 3.04785L12.8055 1.99921C13.8081 1.04556 15.3843 1.04556 16.3869 1.99921C17.3753 2.98586 17.3753 4.58535 16.3869 5.572ZM18.3826 4.02494L28.7298 9.03468C28.4473 9.34249 28.2291 9.70273 28.0872 10.0954L18.0865 5.28023C18.2565 4.88174 18.3566 4.45735 18.3826 4.02494ZM25.9896 33.4733V34.7366H12.0643V33.4733C12.0643 32.7757 12.6312 32.21 13.3303 32.21H24.7237C25.4228 32.21 25.9896 32.7757 25.9896 33.4733ZM22.8248 30.9467H15.2292V29.6834H22.8248V30.9467ZM17.761 28.4201V26.5251C17.761 25.8275 18.3279 25.2618 19.027 25.2618C19.7261 25.2618 20.2929 25.8275 20.2929 26.5251V28.4201H17.761ZM21.0563 25.0287C20.8029 24.6866 20.4672 24.4133 20.0803 24.2348L28.5848 13.1133C28.8429 13.4377 29.1622 13.7082 29.5247 13.9099L21.0563 25.0287ZM31.0533 13.0572C30.0047 13.0572 29.1544 12.2087 29.1544 11.1622C29.1544 10.1154 30.0047 9.26723 31.0533 9.26723C32.102 9.26723 32.9522 10.1154 32.9522 11.1622C32.9522 12.2087 32.102 13.0572 31.0533 13.0572Z" fill="white"/>
<path d="M7.18604 6.12715L8.0814 5.23395L9.34702 6.49695L8.45197 7.39045L7.18604 6.12715Z" fill="white"/>
</g>
<defs>
<clipPath id="clip0_183_12662">
<rect width="36" height="36" fill="white" transform="translate(0.441895)"/>
</clipPath>
</defs>
</svg>
