<svg
  width="74"
  height="28"
  viewBox="0 0 74 28"
  fill="none"
  xmlns="http://www.w3.org/2000/svg"
>
  <g clip-path="url(#clip0_189_777)">
    <path
      d="M70.3 13.9C70.3 12.1 68.8 10.6 67 10.6C65.2 10.6 63.7 12.1 63.7 13.9C63.7 14.8 63.7 20.6 63.7 20.6H60C60 20.6 60 15.8 60 13.9C60 9.99999 63.1 6.89999 67 6.89999C70.9 6.89999 74 9.99999 74 13.9C74 15.9 74 20.6 74 20.6H70.4C70.3 20.6 70.3 14.8 70.3 13.9Z"
      fill="white"
    />
    <path
      d="M44.4 13.9C44.4 9.99999 47.5 6.89999 51.4 6.89999C55.3 6.89999 58.4 9.99999 58.4 13.9C58.4 17.8 55.3 20.9 51.4 20.9C47.6 20.9 44.4 17.8 44.4 13.9ZM51.4 17.2C53.3 17.2 54.8 15.7 54.8 13.8C54.8 11.9 53.3 10.4 51.4 10.4C49.5 10.4 48 11.9 48 13.8C48.1 15.7 49.6 17.3 51.4 17.2C51.4 17.3 51.4 17.3 51.4 17.2Z"
      fill="white"
    />
    <path
      d="M35.8 11.4C35.3 11 35.4 10.4 36.3 10.2C37.9 9.90001 39.6 10.2 41 10.9L42.8 8.50001C41.4 7.50001 39.7 6.90001 38 6.90001C38 6.90001 34 6.40001 32.3 9.50001C31.5 11.2 32.1 13.2 33.7 14.2C35.4 15.3 38.5 15.7 39.4 16.2C40.3 16.7 39.9 17.5 38.8 17.7C36.9 17.9 35 17.4 33.5 16.4L31.7 18.8C33.2 19.9 35 20.7 36.8 20.9C36.8 20.9 40.6 21.6 42.7 18.9C43.9 17.3 43.7 15 42.1 13.8C41.9 13.6 41.6 13.5 41.4 13.4C39.5 12.4 36.7 12 35.8 11.4Z"
      fill="white"
    />
    <path
      d="M18.5 23.4C19.6 24.1 20.8 24.6 22 24.7C26 24.8 26.3 20.6 26.3 19.6C25.4 20.4 24.2 20.9 23 20.9C19.2 20.9 16.1 17.9 16 14.1V14C16 12.1 16 7.10001 16 7.10001H19.7C19.7 7.10001 19.7 13.1 19.7 14C19.7 15.8 21.2 17.3 23 17.3C24.8 17.3 26.3 15.8 26.3 14C26.3 13.2 26.3 7.10001 26.3 7.10001H30V14C30 20.1 30.3 26.3 24.4 27.8C21.7 28.4 18.8 27.7 16.6 25.9L18.5 23.4Z"
      fill="white"
    />
    <path
      d="M14.1 0H10.4V6.8H7C3.1 6.8 0 9.9 0 13.8C0 17.7 3.1 20.8 7 20.8C10.9 20.8 14 17.7 14 13.8C14 11.9 14 6.8 14 6.8L14.1 0ZM10.4 13.9C10.4 15.7 8.9 17.2 7 17.2C5.2 17.2 3.7 15.7 3.7 13.8C3.7 12 5.2 10.5 7 10.5H10.3L10.4 13.9Z"
      fill="white"
    />
  </g>
  <defs>
    <clipPath id="clip0_189_777">
      <rect width="74" height="28" fill="white" />
    </clipPath>
  </defs>
</svg>
