<svg width="24" height="24" viewBox="0 0 24 24" fill="none" xmlns="http://www.w3.org/2000/svg">
<path d="M11.61 11.89C13.8192 11.89 15.61 10.0991 15.61 7.89C15.61 5.68086 13.8192 3.89 11.61 3.89C9.40088 3.89 7.61002 5.68086 7.61002 7.89C7.61002 10.0991 9.40088 11.89 11.61 11.89Z" stroke="white" stroke-linecap="round" stroke-linejoin="round"/>
<path d="M16.16 20.08C16.6851 20.0688 17.198 19.9199 17.6475 19.6483C18.097 19.3767 18.4673 18.9918 18.7214 18.5322C18.9755 18.0726 19.1044 17.5543 19.0954 17.0292C19.0864 16.5042 18.9397 15.9906 18.67 15.54C17.9582 14.4165 16.974 13.4911 15.8087 12.8499C14.6435 12.2088 13.3351 11.8725 12.005 11.8725C10.675 11.8725 9.36659 12.2088 8.20134 12.8499C7.03609 13.4911 6.05183 14.4165 5.34004 15.54C5.07033 15.9906 4.92363 16.5042 4.91463 17.0292C4.90562 17.5543 5.03461 18.0726 5.28871 18.5322C5.54281 18.9918 5.91312 19.3767 6.36259 19.6483C6.81207 19.9199 7.32497 20.0688 7.85002 20.08H16.16Z" stroke="white" stroke-linecap="round" stroke-linejoin="round"/>
</svg>
