<svg width="36" height="34" viewBox="0 0 36 34" fill="none" xmlns="http://www.w3.org/2000/svg">
<path d="M19.3307 0.329895C12.7558 0.329895 6.9533 4.12376 4.25133 9.87505L2.37178 5.97233L0 7.11473L3.90339 15.2172L12.0059 11.3136L10.8633 8.9423L6.64233 10.9753C8.92248 6.14567 13.8022 2.96242 19.3307 2.96242C27.0711 2.96242 33.3681 9.2597 33.3681 17C33.3681 24.7403 27.0711 31.0378 19.3307 31.0378C14.773 31.0378 10.4815 28.8112 7.85137 25.0818L5.69967 26.5993C8.82346 31.0268 13.9189 33.6701 19.3307 33.6701C28.5219 33.6701 35.9999 26.1919 35.9999 17C35.9999 7.80803 28.5219 0.329895 19.3307 0.329895Z" fill="black" fill-opacity="0.8"/>
</svg>
