<svg width="29" height="36" viewBox="0 0 29 36" fill="none" xmlns="http://www.w3.org/2000/svg">
<path d="M11.5939 25.5654C9.3325 25.5654 7.49268 27.4053 7.49268 29.6667C7.49268 31.9281 9.3325 33.768 11.5939 33.768C13.8554 33.768 15.6952 31.9281 15.6952 29.6667C15.6952 27.4053 13.8554 25.5654 11.5939 25.5654ZM11.5939 32.637C9.9561 32.637 8.62362 31.3045 8.62362 29.6667C8.62362 28.0289 9.9561 26.6964 11.5939 26.6964C13.2318 26.6964 14.5643 28.0289 14.5643 29.6667C14.5643 31.3045 13.2318 32.637 11.5939 32.637Z" fill="white"/>
<path d="M28.3952 35.1913L27.5813 33.4825C27.2626 32.8134 26.5778 32.381 25.8366 32.381H24.5783V7.34211C24.5783 3.29362 21.2843 0 17.2354 0C13.1865 0 9.89254 3.29369 9.89254 7.34211V17.6851C5.4195 18.504 2.01859 22.4303 2.01859 27.1363V29.2309H0.565473C0.253181 29.2309 0 29.4841 0 29.7964V33.5284C0 33.8406 0.253181 34.0938 0.565473 34.0938H2.1105C2.41065 35.191 3.41584 36 4.60695 36H11.5939C15.0862 36 17.9272 33.1589 17.9272 29.6667C17.9272 27.7238 17.0471 25.9833 15.6653 24.8205V19.7392C15.6653 18.5199 14.6734 17.5279 13.454 17.5279H13.3609V7.34211C13.3609 5.20605 15.099 3.46824 17.2355 3.46824C19.3719 3.46824 21.1101 5.20605 21.1101 7.34211V32.381H19.8514C19.1102 32.381 18.4254 32.8134 18.1068 33.4825L17.2929 35.1913C17.2094 35.3664 17.2216 35.5722 17.3252 35.7363C17.4288 35.9004 17.6093 35.9999 17.8034 35.9999H27.8848C28.0788 35.9999 28.2593 35.9004 28.3629 35.7363C28.4665 35.5723 28.4787 35.3665 28.3952 35.1913ZM1.13095 30.3619H2.01859V32.9629H1.13095V30.3619ZM16.7963 29.6667C16.7963 32.5353 14.4625 34.8691 11.5939 34.8691C8.72533 34.8691 6.39158 32.5353 6.39158 29.6667C6.39158 26.7981 8.72533 24.4643 11.5939 24.4643C14.4625 24.4643 16.7963 26.7981 16.7963 29.6667ZM14.5344 19.7392V24.06C13.6551 23.5969 12.6549 23.3334 11.5939 23.3334C8.10173 23.3334 5.26064 26.1745 5.26064 29.6667C5.26064 31.8198 6.34145 33.7242 7.98818 34.8691H4.60695C3.8033 34.8691 3.14954 34.2153 3.14954 33.4116V27.1363C3.14954 22.4618 6.95253 18.6588 11.627 18.6588H13.4539C14.0498 18.6588 14.5344 19.1435 14.5344 19.7392ZM12.2299 7.34211V17.5278H11.627C11.4243 17.5278 11.2232 17.5349 11.0236 17.5473V7.34211C11.0236 4.10798 13.5089 1.44452 16.67 1.15779V2.37009C14.1754 2.65199 12.2299 4.77365 12.2299 7.34211ZM17.801 2.37009V1.15786C20.962 1.4446 23.4474 4.10798 23.4474 7.34218V7.95387H22.241V7.34211C22.241 4.77365 20.2957 2.65199 17.801 2.37009ZM22.241 9.08474H23.4474V32.381H22.241V9.08474ZM18.699 34.8691L19.1278 33.9689C19.2599 33.6914 19.544 33.5121 19.8514 33.5121H25.8367C26.1441 33.5121 26.4281 33.6914 26.5604 33.9689L26.9891 34.8691H18.699Z" fill="white"/>
</svg>
