<svg width="50" height="50" viewBox="0 0 50 50" fill="none" xmlns="http://www.w3.org/2000/svg">
<g clip-path="url(#clip0_979_30066)">
<path d="M48.9583 16.6664H40.1313L28.9836 0.451377C28.6581 -0.0237208 28.0111 -0.140713 27.5351 0.182822C27.061 0.509385 26.941 1.15733 27.2665 1.63136L37.603 16.6663H12.397L22.7336 1.63136C23.0591 1.15733 22.9391 0.509287 22.465 0.182822C21.9931 -0.140713 21.344 -0.0237208 21.0165 0.451377L9.86865 16.6664H1.0417C0.465918 16.6664 0 17.1322 0 17.708C0 18.2838 0.465918 18.7497 1.0417 18.7497H2.38662L8.45742 36.0959C9.18779 38.1813 11.1633 39.583 13.3728 39.583H13.5944C14.1232 45.4142 19.0345 49.9997 25 49.9997C30.9655 49.9997 35.8768 45.4142 36.4056 39.583H36.6272C38.8367 39.583 40.8122 38.1813 41.5426 36.0948L47.6134 18.7496H48.9583C49.5341 18.7496 50 18.2837 50 17.7079C50 17.1322 49.5341 16.6664 48.9583 16.6664ZM25 47.9164C19.8303 47.9164 15.625 43.711 15.625 38.5414C15.625 33.3718 19.8304 29.1664 25 29.1664C30.1696 29.1664 34.375 33.3718 34.375 38.5414C34.375 43.711 30.1697 47.9164 25 47.9164ZM39.5772 35.4062C39.1378 36.6584 37.9517 37.4997 36.6272 37.4997H36.4056C35.8768 31.6686 30.9655 27.083 25 27.083C19.0345 27.083 14.1232 31.6686 13.5944 37.4997H13.3728C12.0482 37.4997 10.8622 36.6584 10.4228 35.4072L4.59268 18.7497H45.4074L39.5772 35.4062Z" fill="black"/>
<path d="M28.8616 34.6799C28.4547 34.273 27.7955 34.273 27.3887 34.6799L25.0001 37.0684L22.6116 34.6799C22.2047 34.273 21.5455 34.273 21.1387 34.6799C20.7318 35.0868 20.7318 35.746 21.1387 36.1528L23.5272 38.5413L21.1387 40.9298C20.7318 41.3367 20.7318 41.9959 21.1387 42.4027C21.3421 42.6062 21.6087 42.7079 21.8752 42.7079C22.1417 42.7079 22.4082 42.6062 22.6117 42.4027L25.0001 40.0144L27.3886 42.4028C27.592 42.6063 27.8586 42.708 28.1251 42.708C28.3916 42.708 28.6581 42.6063 28.8616 42.4028C29.2686 41.9959 29.2686 41.3367 28.8616 40.9299L26.4732 38.5414L28.8616 36.1529C29.2685 35.746 29.2685 35.0868 28.8616 34.6799Z" fill="black"/>
</g>
<defs>
<clipPath id="clip0_979_30066">
<rect width="50" height="50" fill="white"/>
</clipPath>
</defs>
</svg>
