<?xml version="1.0" ?><svg xmlns="http://www.w3.org/2000/svg" id="Hair_Brush-2" viewBox="0 0 64 64"><rect x="1.67157288" y="6.37867966" width="5.65685425" height="4.24264069" transform="translate(-4.69238816 5.67157288) rotate(-45)" style="fill:#5e6e84; stroke-width:0px;"/><rect x="41.37867966" y="33.67157288" width="4.24264069" height="5.65685425" transform="translate(-13.06854249 41.44974747) rotate(-45)" style="fill:#f45687; stroke-width:0px;"/><path d="M45,55.75732422c-.80175781,0-1.5546875-.31201172-2.12109375-.87841797l-13.87890625-13.87890625,8-8,13.87890625,13.87890625c1.16894531,1.16943359,1.16894531,3.07275391,0,4.2421875l-3.7578125,3.7578125c-.56640625.56640625-1.31933594.87841797-2.12109375.87841797Z" style="fill:#ff6c9d; stroke-width:0px;"/><path d="M45,55.75732422c-.80175781,0-1.5546875-.31201172-2.12109375-.87841797l-2.87890625-2.87890625,8-8,2.87890625,2.87890625c1.16894531,1.16943359,1.16894531,3.07275391,0,4.2421875l-3.7578125,3.7578125c-.56640625.56640625-1.31933594.87841797-2.12109375.87841797Z" style="fill:#f45687; stroke-width:0px;"/><rect x="12.34314575" y="5.02943725" width="11.3137085" height="33.9411255" transform="translate(-10.28427125 19.17157288) rotate(-45)" style="fill:#78869b; stroke-width:0px;"/><rect x="21.60050506" y="33.37867966" width="19.79898987" height="4.24264069" transform="translate(-15.87615434 32.67157288) rotate(-45)" style="fill:#f45687; stroke-width:0px;"/><path d="M54.95019531,41.53613281c-.61328125-.61328125-.95019531-1.42773438-.95019531-2.29345703,0-1.78808594,1.45410156-3.24267578,3.2421875-3.24267578h5.7578125c.55273438,0,1-.44775391,1-1s-.44726562-1-1-1h-5.7578125c-2.890625,0-5.2421875,2.35205078-5.2421875,5.24267578,0,1.39941406.54492188,2.71582031,1.53515625,3.70703125l7.10058594,7.10107422c.87988281.87890625,1.36425781,2.04785156,1.36425781,3.29248047,0,2.56787109-2.08886719,4.65673828-4.65722656,4.65673828-1.24316406,0-2.41308594-.484375-3.29296875-1.36376953l-3.63580322-3.63616943,1.17193604-1.17193604c1.55859375-1.55957031,1.55859375-4.09667969,0-5.65625l-6.171875-6.171875,2.29296875-2.29296875c.390625-.390625.390625-1.0234375,0-1.4140625l-4-4c-.390625-.390625-1.0234375-.390625-1.4140625,0l-2.29296875,2.29296875-1.5859375-1.5859375,2.29296875-2.29296875c.390625-.390625.390625-1.0234375,0-1.4140625l-3-3c-.390625-.390625-1.0234375-.390625-1.4140625,0l-2.29296875,2.29296875-2.5859375-2.5859375,1.29296875-1.29296875c.390625-.390625.390625-1.0234375,0-1.4140625s-1.0234375-.390625-1.4140625,0l-1.29296875,1.29296875-2.5859375-2.5859375,1.29296875-1.29296875c.390625-.390625.390625-1.0234375,0-1.4140625s-1.0234375-.390625-1.4140625,0l-1.29296875,1.29296875-2.5859375-2.5859375,1.29296875-1.29296875c.390625-.390625.390625-1.0234375,0-1.4140625s-1.0234375-.390625-1.4140625,0l-1.29296875,1.29296875-2.5859375-2.5859375,1.29296875-1.29296875c.390625-.390625.390625-1.0234375,0-1.4140625s-1.0234375-.390625-1.4140625,0l-1.29296875,1.29296875-2.5859375-2.5859375,1.29296875-1.29296875c.390625-.390625.390625-1.0234375,0-1.4140625s-1.0234375-.390625-1.4140625,0l-1.29296875,1.29296875-3.29296875-3.29296875c-.390625-.390625-1.0234375-.390625-1.4140625,0l-1.29296875,1.29296875-2.29296875-2.29296875c-.390625-.390625-1.0234375-.390625-1.4140625,0L.29296875,8.29296875c-.390625.390625-.390625,1.0234375,0,1.4140625l2.29296875,2.29296875-1.29296875,1.29296875c-.390625.390625-.390625,1.0234375,0,1.4140625l3.29296875,3.29296875-1.29296875,1.29296875c-.390625.390625-.390625,1.0234375,0,1.4140625.1953125.1953125.45117188.29296875.70703125.29296875s.51171875-.09765625.70703125-.29296875l1.29296875-1.29296875,2.5859375,2.5859375-1.29296875,1.29296875c-.390625.390625-.390625,1.0234375,0,1.4140625.1953125.1953125.45117188.29296875.70703125.29296875s.51171875-.09765625.70703125-.29296875l1.29296875-1.29296875,2.5859375,2.5859375-1.29296875,1.29296875c-.390625.390625-.390625,1.0234375,0,1.4140625.1953125.1953125.45117188.29296875.70703125.29296875s.51171875-.09765625.70703125-.29296875l1.29296875-1.29296875,2.5859375,2.5859375-1.29296875,1.29296875c-.390625.390625-.390625,1.0234375,0,1.4140625.1953125.1953125.45117188.29296875.70703125.29296875s.51171875-.09765625.70703125-.29296875l1.29296875-1.29296875,2.5859375,2.5859375-1.29296875,1.29296875c-.390625.390625-.390625,1.0234375,0,1.4140625.1953125.1953125.45117188.29296875.70703125.29296875s.51171875-.09765625.70703125-.29296875l1.29296875-1.29296875,2.5859375,2.5859375-2.29296875,2.29296875c-.390625.390625-.390625,1.0234375,0,1.4140625l3,3c.1953125.1953125.45117188.29296875.70703125.29296875s.51171875-.09765625.70703125-.29296875l2.29296875-2.29296875,13.171875,13.171875c.75488281.75537109,1.75976562,1.17138672,2.828125,1.17138672s2.07324219-.41601562,2.828125-1.17138672l1.17181396-1.17181396,3.63580322,3.63665771c1.25878906,1.25683594,2.9296875,1.94921875,4.70703125,1.94921875,3.67089844,0,6.65722656-2.98632812,6.65722656-6.65673828,0-1.77880859-.69238281-3.45068359-1.95019531-4.70703125l-7.09960938-7.10009766ZM43,34.4140625l2.5859375,2.5859375-1.5859375,1.5859375-2.5859375-2.5859375,1.5859375-1.5859375ZM2.4140625,9l2.5859375-2.5859375,1.5859375,1.5859375-2.5859375,2.5859375-1.5859375-1.5859375ZM23.4140625,34l1.29296875-1.29296875c.390625-.390625.390625-1.0234375,0-1.4140625s-1.0234375-.390625-1.4140625,0l-1.29296875,1.29296875-2.5859375-2.5859375,1.29296875-1.29296875c.390625-.390625.390625-1.0234375,0-1.4140625s-1.0234375-.390625-1.4140625,0l-1.29296875,1.29296875-2.5859375-2.5859375,1.29296875-1.29296875c.390625-.390625.390625-1.0234375,0-1.4140625s-1.0234375-.390625-1.4140625,0l-1.29296875,1.29296875-2.5859375-2.5859375,1.29296875-1.29296875c.390625-.390625.390625-1.0234375,0-1.4140625s-1.0234375-.390625-1.4140625,0l-1.29296875,1.29296875-2.5859375-2.5859375,1.29296875-1.29296875c.390625-.390625.390625-1.0234375,0-1.4140625s-1.0234375-.390625-1.4140625,0l-1.29296875,1.29296875-2.5859375-2.5859375,6.5859375-6.5859375,2.5859375,2.5859375-1.29296875,1.29296875c-.390625.390625-.390625,1.0234375,0,1.4140625.1953125.1953125.45117188.29296875.70703125.29296875s.51171875-.09765625.70703125-.29296875l1.29296875-1.29296875,2.5859375,2.5859375-1.29296875,1.29296875c-.390625.390625-.390625,1.0234375,0,1.4140625.1953125.1953125.45117188.29296875.70703125.29296875s.51171875-.09765625.70703125-.29296875l1.29296875-1.29296875,2.5859375,2.5859375-1.29296875,1.29296875c-.390625.390625-.390625,1.0234375,0,1.4140625.1953125.1953125.45117188.29296875.70703125.29296875s.51171875-.09765625.70703125-.29296875l1.29296875-1.29296875,2.5859375,2.5859375-1.29296875,1.29296875c-.390625.390625-.390625,1.0234375,0,1.4140625.1953125.1953125.45117188.29296875.70703125.29296875s.51171875-.09765625.70703125-.29296875l1.29296875-1.29296875,2.5859375,2.5859375-1.29296875,1.29296875c-.390625.390625-.390625,1.0234375,0,1.4140625.1953125.1953125.45117188.29296875.70703125.29296875s.51171875-.09765625.70703125-.29296875l1.29296875-1.29296875,2.5859375,2.5859375-6.5859375,6.5859375-2.5859375-2.5859375ZM26,42.5859375l-1.5859375-1.5859375,12.5859375-12.5859375,1.5859375,1.5859375-12.5859375,12.5859375ZM37,34.4140625l9.5859375,9.5859375-6.5859375,6.5859375-9.5859375-9.5859375,6.5859375-6.5859375ZM46.4140625,54.171875c-.75585938.75488281-2.07226562.75488281-2.828125,0l-2.171875-2.171875,6.5859375-6.5859375,2.171875,2.171875c.77929688.77978516.77929688,2.04833984,0,2.828125l-3.7578125,3.7578125Z" style="fill:#393e4c; stroke-width:0px;"/></svg>